#!OML:ASF H:\Terrain\Walking\May29\JustinRory\Justin.ASF
:FULLY-SPECIFIED
:DEGREES
1891
root 6.58495 17.9947 6.62619 -175.425 6.24064 181.697
lowerback 0.296988 1.42226 -2.52916
upperback 1.02415 1.9461 -1.09972
thorax 0.837536 0.972693 0.298011
lowerneck -16.4531 -4.38064 -12.5403
upperneck 20.7897 -3.20412 3.95481
head 9.60883 -1.88391 3.05217
rclavicle 7.95139e-016 7.95139e-016
rhumerus -31.4346 -15.4395 -78.4725
rradius 32.6536
rwrist -10.0664
rhand -10.7571 23.3395
rfingers 7.12502
rthumb 15.2545 -6.07799
lclavicle 7.95139e-016 7.95139e-016
lhumerus -30.3407 15.0008 74.2726
lradius 32.8899
lwrist -4.77736
lhand -1.16185 38.2242
lfingers 7.12502
lthumb 24.4771 66.6802
rfemur -2.58666 1.98697 11.9004
rtibia 12.3229
rfoot -9.32075 -10.6117
rtoes -6.17267
lfemur -8.3886 1.66312 -23.1496
ltibia 22.8825
lfoot -14.2773 0.714439
ltoes -3.95728
1892
root 6.58492 17.995 6.62981 -175.385 6.1601 181.776
lowerback 0.180481 1.51072 -2.28269
upperback 1.19271 2.07969 -1.261
thorax 1.08715 1.04197 0.00245974
lowerneck -16.8257 -4.4995 -12.1289
upperneck 20.8278 -3.42944 3.86354
head 9.69839 -1.97209 2.91772
rclavicle 4.27387e-015 3.97569e-015
rhumerus -31.2202 -15.5647 -79.0075
rradius 33.1077
rwrist -10.2481
rhand -10.8592 23.1736
rfingers 7.12502
rthumb 15.1561 -6.25137
lclavicle 4.27387e-015 3.97569e-015
lhumerus -29.7064 14.2728 74.5313
lradius 33.4663
lwrist -5.50384
lhand 0.199489 39.7009
lfingers 7.12502
lthumb 25.7814 67.974
rfemur -2.60304 2.06304 12.007
rtibia 12.293
rfoot -9.3721 -10.7751
rtoes -6.01723
lfemur -8.47698 1.67768 -23.0555
ltibia 22.9516
lfoot -14.4896 0.66917
ltoes -5.15048
1893
root 6.58133 17.9943 6.62513 -175.396 6.21949 181.794
lowerback 0.0916917 1.52071 -2.23092
upperback 1.20928 2.09407 -1.22141
thorax 1.15396 1.04807 0.0171283
lowerneck -16.7864 -4.47843 -12.1288
upperneck 20.8443 -3.37117 3.74978
head 9.69098 -1.9561 2.88628
rclavicle 1.68967e-014 -1.98785e-014
rhumerus -31.2858 -15.0192 -79.285
rradius 33.57
rwrist -10.453
rhand -10.7424 23.139
rfingers 7.12502
rthumb 15.2686 -6.27748
lclavicle 1.68967e-014 -1.98785e-014
lhumerus -29.6945 14.1106 74.7659
lradius 34.2103
lwrist -6.19168
lhand 1.02357 40.2621
lfingers 7.12502
lthumb 26.5704 68.4183
rfemur -2.54796 2.10133 12.0107
rtibia 12.2018
rfoot -9.29717 -10.7551
rtoes -6.0666
lfemur -8.49936 1.81325 -23.056
ltibia 23.0459
lfoot -14.7224 0.633712
ltoes -6.22908
1894
root 6.5744 17.991 6.61385 -175.437 6.42929 181.89
lowerback -0.0342285 1.58262 -2.03699
upperback 1.24324 2.17771 -1.18701
thorax 1.26366 1.08973 -0.0506825
lowerneck -16.7789 -4.45697 -12.1665
upperneck 20.8899 -3.31354 3.70099
head 9.70152 -1.93667 2.88402
rclavicle 7.25564e-015 -1.66979e-014
rhumerus -31.358 -14.5364 -79.5686
rradius 33.9222
rwrist -10.3196
rhand -11.2905 23.1949
rfingers 7.12502
rthumb 14.7407 -6.26096
lclavicle 7.25564e-015 -1.66979e-014
lhumerus -29.6089 13.6621 75.0986
lradius 34.7241
lwrist -5.9789
lhand 0.728511 39.1601
lfingers 7.12502
lthumb 26.288 67.3588
rfemur -2.43696 2.23204 12.0552
rtibia 12.0515
rfoot -9.2294 -10.6842
rtoes -6.12531
lfemur -8.4507 1.67571 -23.0238
ltibia 23.1692
lfoot -14.6751 1.01872
ltoes -5.73247
1895
root 6.57853 17.9927 6.62346 -175.498 6.29703 182.054
lowerback 0.213219 1.59915 -1.9536
upperback 1.15426 2.18616 -1.12594
thorax 1.03414 1.09538 -0.0441878
lowerneck -16.6302 -4.46059 -12.0377
upperneck 20.9397 -3.34865 3.63579
head 9.69076 -1.94852 2.83772
rclavicle -1.5704e-014 -1.03368e-014
rhumerus -31.7275 -14.0223 -79.8877
rradius 34.4996
rwrist -10.0044
rhand -12.9541 22.7214
rfingers 7.12502
rthumb 13.1374 -6.84478
lclavicle -1.5704e-014 -1.03368e-014
lhumerus -29.5721 12.7802 75.4873
lradius 35.0616
lwrist -5.52167
lhand 0.671072 38.9356
lfingers 7.12502
lthumb 26.233 67.1424
rfemur -2.28244 2.17484 12.2859
rtibia 11.9257
rfoot -9.19196 -10.7465
rtoes -5.96805
lfemur -8.48176 1.7365 -22.7951
ltibia 23.3171
lfoot -14.6043 0.885271
ltoes -5.35542
1896
root 6.58163 17.9938 6.63625 -175.476 5.99436 182.143
lowerback 0.380249 1.01844 -2.32552
upperback 0.667425 1.37208 -0.483441
thorax 0.427865 0.682462 0.807251
lowerneck -15.169 -3.91752 -13.085
upperneck 20.5911 -2.44607 3.60325
head 9.24757 -1.58581 3.12822
rclavicle -2.23136e-014 1.98785e-014
rhumerus -32.4555 -11.1746 -79.9915
rradius 35.0176
rwrist -9.80696
rhand -14.5111 21.8978
rfingers 7.12502
rthumb 11.6363 -7.75906
lclavicle -2.23136e-014 1.98785e-014
lhumerus -31.1205 13.8419 75.6677
lradius 35.6759
lwrist -5.34672
lhand 0.532457 39.0155
lfingers 7.12502
lthumb 26.1003 67.2419
rfemur -2.13368 1.95383 12.4448
rtibia 11.668
rfoot -9.07069 -10.8285
rtoes -5.97706
lfemur -8.64965 1.83814 -22.6313
ltibia 23.4752
lfoot -14.7669 0.514495
ltoes -6.23568
